<?xml version="1.0" encoding="UTF-8" standalone="no"?>
<svg
   xmlns:dc="http://purl.org/dc/elements/1.1/"
   xmlns:cc="http://creativecommons.org/ns#"
   xmlns:rdf="http://www.w3.org/1999/02/22-rdf-syntax-ns#"
   xmlns:svg="http://www.w3.org/2000/svg"
   xmlns="http://www.w3.org/2000/svg"
   xmlns:sodipodi="http://sodipodi.sourceforge.net/DTD/sodipodi-0.dtd"
   xmlns:inkscape="http://www.inkscape.org/namespaces/inkscape"
   version="1.1"
   id="svg2"
   xml:space="preserve"
   width="1440"
   height="1440"
   viewBox="0 0 1440 1440"
   sodipodi:docname="premeir-logo.ai"><metadata
     id="metadata8"><rdf:RDF><cc:Work
         rdf:about=""><dc:format>image/svg+xml</dc:format><dc:type
           rdf:resource="http://purl.org/dc/dcmitype/StillImage" /></cc:Work></rdf:RDF></metadata><defs
     id="defs6"><clipPath
       clipPathUnits="userSpaceOnUse"
       id="clipPath18"><path
         d="M 0,1080 H 1080 V 0 H 0 Z"
         id="path16" /></clipPath></defs><sodipodi:namedview
     pagecolor="#ffffff"
     bordercolor="#666666"
     borderopacity="1"
     objecttolerance="10"
     gridtolerance="10"
     guidetolerance="10"
     inkscape:pageopacity="0"
     inkscape:pageshadow="2"
     inkscape:window-width="640"
     inkscape:window-height="480"
     id="namedview4" /><g
     id="g10"
     inkscape:groupmode="layer"
     inkscape:label="premeir-logo"
     transform="matrix(1.3333333,0,0,-1.3333333,0,1440)"><g
       id="g12"><g
         id="g14"
         clip-path="url(#clipPath18)"><g
           id="g20"
           transform="translate(323.6805,324.6259)"><path
             d="m 0,0 c -13.235,-5.348 -26.354,-10.981 -39.412,-16.746 -11.739,-5.183 -22.769,-12.88 -37.22,-16.416 1.951,9.036 3.96,18.776 3.903,28.662 -0.286,49.889 5.47,99.198 10.049,148.874 C -63.102,139.797 50.106,119.81 61.194,120.368 54.699,98.684 68.048,47.128 78.721,27.798 54.221,16.59 25.533,10.318 0,0 m 182.427,365.286 c 7.498,15.541 17.328,27.019 29.559,38.755 0,0 11.617,5.728 12.148,5.99 59.529,29.357 111.127,-73.887 68.537,-112.306 -21.13,-19.06 -60.179,-21.295 -86.473,-16.63 -19.934,3.536 -30.587,11.89 -34.996,23.081 -6.448,16.365 0.458,38.799 11.225,61.11 M 420.281,615.709 C 319.674,664.842 192.164,660.626 88.214,625.942 35.513,608.358 -15.61,582.167 -44.352,532.339 -88.353,456.058 -69.523,365.786 -8.026,304.798 c 50.559,-50.141 128.055,-71.406 197.282,-76.237 45.576,-3.181 105.382,4.962 144.608,30.509 41.796,27.22 64.101,71.984 45.023,121.943 -12.449,32.602 -39.668,66.543 -76.747,72.03 -59.465,8.792 -126.5,-11.032 -165.007,-58.922 -10.238,-12.733 -18.816,-27.703 -23.675,-43.322 -3.4,-10.93 -4.003,-31.65 -17.656,-36.121 -7.297,-2.346 -17.688,11.375 -22.363,16.334 -31.071,33.015 -49.681,76.638 -40.21,122.264 19.616,94.498 140.545,150.981 228.64,144.206 105.014,-8.075 197.552,-112.822 191.951,-218.444 -1.158,-21.814 -1.916,-43.889 -7.654,-65.09 C 431.682,260.43 389.827,195.494 334.476,176.037 201.629,129.34 53.337,145.329 -74.185,201.073 c -5.984,2.615 -11.726,5.872 -17.336,9.199 -5.682,3.37 -13.981,7.94 -20.83,7.117 -8.181,-0.983 -9.818,-9.82 -10.619,-16.543 -1.345,-11.307 -2.666,-22.601 -4.446,-33.852 -11.555,-73.022 -25.115,-145.697 -37.671,-218.538 -7.877,-45.694 -15.753,-91.388 -23.63,-137.082 l -0.63,-3.5 c 20.623,13.022 40.099,23.862 62.474,33.666 49.677,21.768 100.778,40.267 152.432,56.761 11.692,3.733 143.81,43.862 144.167,42.638 -4.936,16.926 -24.277,168.898 -17.669,168.845 57.735,-0.512 115.716,7.238 172.167,18.847 113.334,23.306 216.069,92.676 232.596,215.079 14.816,109.731 -34.031,221.938 -136.539,271.999"
             style="fill:#ef4644;fill-opacity:1;fill-rule:nonzero;stroke:none"
             id="path22" /></g><g
           id="g24"
           transform="translate(323.6805,324.6259)"><path
             d="m 0,0 c -13.235,-5.348 -26.354,-10.981 -39.412,-16.746 -11.739,-5.183 -22.769,-12.88 -37.22,-16.416 1.951,9.036 3.96,18.776 3.903,28.662 -0.286,49.889 5.47,99.198 10.049,148.874 C -63.102,139.797 50.106,119.81 61.194,120.368 54.699,98.684 68.048,47.128 78.721,27.798 54.221,16.59 25.533,10.318 0,0 Z m 182.427,365.286 c 7.498,15.541 17.328,27.019 29.559,38.755 0,0 11.617,5.728 12.148,5.99 59.529,29.357 111.127,-73.887 68.537,-112.306 -21.13,-19.06 -60.179,-21.295 -86.473,-16.63 -19.934,3.536 -30.587,11.89 -34.996,23.081 -6.448,16.365 0.458,38.799 11.225,61.11 z M 420.281,615.709 C 319.674,664.842 192.164,660.626 88.214,625.942 35.513,608.358 -15.61,582.167 -44.352,532.339 -88.353,456.058 -69.523,365.786 -8.026,304.798 c 50.559,-50.141 128.055,-71.406 197.282,-76.237 45.576,-3.181 105.382,4.962 144.608,30.509 41.796,27.22 64.101,71.984 45.023,121.943 -12.449,32.602 -39.668,66.543 -76.747,72.03 -59.465,8.792 -126.5,-11.032 -165.007,-58.922 -10.238,-12.733 -18.816,-27.703 -23.675,-43.322 -3.4,-10.93 -4.003,-31.65 -17.656,-36.121 -7.297,-2.346 -17.688,11.375 -22.363,16.334 -31.071,33.015 -49.681,76.638 -40.21,122.264 19.616,94.498 140.545,150.981 228.64,144.206 105.014,-8.075 197.552,-112.822 191.951,-218.444 -1.158,-21.814 -1.916,-43.889 -7.654,-65.09 C 431.682,260.43 389.827,195.494 334.476,176.037 201.629,129.34 53.337,145.329 -74.185,201.073 c -5.984,2.615 -11.726,5.872 -17.336,9.199 -5.682,3.37 -13.981,7.94 -20.83,7.117 -8.181,-0.983 -9.818,-9.82 -10.619,-16.543 -1.345,-11.307 -2.666,-22.601 -4.446,-33.852 -11.555,-73.022 -25.115,-145.697 -37.671,-218.538 -7.877,-45.694 -15.753,-91.388 -23.63,-137.082 l -0.63,-3.5 c 20.623,13.022 40.099,23.862 62.474,33.666 49.677,21.768 100.778,40.267 152.432,56.761 11.692,3.733 143.81,43.862 144.167,42.638 -4.936,16.926 -24.277,168.898 -17.669,168.845 57.735,-0.512 115.716,7.238 172.167,18.847 113.334,23.306 216.069,92.676 232.596,215.079 14.816,109.731 -34.031,221.938 -136.539,271.999 z"
             style="fill:none;stroke:#000000;stroke-width:1;stroke-linecap:butt;stroke-linejoin:miter;stroke-miterlimit:10;stroke-dasharray:none;stroke-opacity:1"
             id="path26" /></g></g></g></g></svg>
